<?xml version="1.0" encoding="UTF-8"?>
<svg id="Ebene_1" data-name="Ebene 1" xmlns="http://www.w3.org/2000/svg" viewBox="0 0 331.86 245.73">
  <defs>
    <style>
      .cls-1 {
        fill: #3c3c3b;
        font-family: Tahoma, Tahoma;
        font-size: 74.01px;
      }

      .cls-2 {
        fill: #193b4d;
        stroke-width: 0px;
      }
    </style>
  </defs>
  <circle class="cls-2" cx="322.9" cy="221.06" r="8.96"/>
  <path class="cls-2" d="M99.27,106.35c0-4.95,4.01-8.96,8.96-8.96.09,0,.17.01.26.01l10.79-16.99-30.55-19.68-42.89,62.43,32.75,21.3,21.64-34.06c-.61-1.21-.97-2.58-.97-4.04Z"/>
  <path class="cls-2" d="M105.34,0l-14.49,51.41,77.49,49.22c1.15-.53,2.42-.84,3.76-.84,4.94,0,8.94,3.99,8.96,8.92l25,15.88,25.36-42.03L105.34,0Z"/>
  <text class="cls-1" transform="translate(0 229.76) scale(1.11 1)"><tspan x="0" y="0">namowo</tspan></text>
  <path class="cls-2" d="M176.63,116.47c-1.33.78-2.87,1.23-4.51,1.23-4.95,0-8.96-4.01-8.96-8.96,0-.31.02-.62.05-.92l-35.73-23.04-11.1,17.83c.53,1.15.84,2.42.84,3.76,0,4.88-3.9,8.84-8.75,8.95l-22.22,35.68,9.56,13.79,38.92-2.46,62.27,6.69,5.46-35.91-25.8-16.64Z"/>
</svg>